# xmcd
# Copyright (c) 1998 CDDB Inc.
#
# Track frame offsets:
#	150
#	17032
#	36175
#	58414
#	73985
#	88837
#	101450
#	122454
#	140552
#	160937
#	179847
#	200150
#	217690
#	236520
#
# Disc length: 3404 seconds
#
# Revision: 0
# Processed by: cddbd v1.4b41PL2 Copyright (c) Steve Scherf et al.
# Submitted via: audiograbber 1.70
#
DISCID=d10d4a0e
DTITLE=Grupo Macarena - Gybsy Flamenco
DYEAR=1900
DGENRE=
TTITLE0=Vete de mi Vera
TTITLE1=La vida es una corriente
TTITLE2=Una ilama
TTITLE3=Siempre de puede rezar
TTITLE4=Rumba libre
TTITLE5=Poer que un animal
TTITLE6=Enamorada estoy
TTITLE7=El pobre sonaba
TTITLE8=A la repompa
TTITLE9=Andar nuevo camino
TTITLE10=Tomas, la vida
TTITLE11=Aqui en los madriles
TTITLE12=Tienes el nombre e hoya
TTITLE13=Acerca los pueblos
EXTD=
EXTT0=
EXTT1=
EXTT2=
EXTT3=
EXTT4=
EXTT5=
EXTT6=
EXTT7=
EXTT8=
EXTT9=
EXTT10=
EXTT11=
EXTT12=
EXTT13=
PLAYORDER=
